<?xml version="1.0" encoding="UTF-8"?>
<!DOCTYPE svg PUBLIC "-//W3C//DTD SVG 1.1//EN" "http://www.w3.org/Graphics/SVG/1.1/DTD/svg11.dtd">
<svg version="1.1" xmlns="http://www.w3.org/2000/svg" xmlns:xlink="http://www.w3.org/1999/xlink" x="0" y="0" width="538" height="556" viewBox="0, 0, 538, 556">
  <g id="Layer_1">
    <path d="M400.927,331.145 C400.927,331.145 389.147,327.664 382.9,337.866 C371.933,333.563 344.576,332.603 343.047,369.384 C341.882,340.176 355.88,328.505 369.283,326.305 C388.437,323.16 400.927,331.145 400.927,331.145 M218.474,366.053 C216.947,329.272 189.588,330.232 178.622,334.534 C172.375,324.332 160.593,327.813 160.593,327.813 C160.593,327.813 173.086,319.83 192.239,322.974 C205.642,325.174 219.644,336.845 218.474,366.053 M426.017,543.199 C426.239,543.437 426.223,543.809 425.987,544.029 C425.756,544.242 425.399,544.232 425.176,544.017 C425.176,544.017 423.967,542.832 422.874,541.524 C422.318,540.864 421.787,540.199 421.426,539.699 C421.052,539.199 420.803,538.864 420.803,538.864 C420.555,538.533 420.624,538.065 420.956,537.815 C421.288,537.568 421.755,537.637 422.002,537.966 L422.026,537.996 C422.026,537.996 422.257,538.344 422.61,538.862 C422.951,539.396 423.428,540.053 423.918,540.692 C424.904,541.991 426.017,543.199 426.017,543.199 M420.421,535.185 C420.629,535.593 420.47,536.094 420.061,536.304 C419.667,536.506 419.181,536.354 418.962,535.976 C418.962,535.976 418.118,534.491 417.422,532.914 C417.097,532.109 416.745,531.285 416.572,530.701 C416.375,530.109 416.243,529.714 416.243,529.714 C416.073,529.198 416.352,528.642 416.868,528.47 C417.384,528.299 417.942,528.578 418.114,529.095 L418.125,529.13 C418.125,529.13 418.24,529.531 418.414,530.131 C418.571,530.755 418.847,531.476 419.109,532.228 C419.687,533.733 420.421,535.185 420.421,535.185 M416.6,527.216 C416.041,527.26 415.545,526.855 415.481,526.301 C415.481,526.301 415.428,525.868 415.352,525.223 C415.251,524.574 415.242,523.703 415.201,522.827 C415.212,522.381 415.222,521.934 415.236,521.513 C415.238,521.08 415.29,520.736 415.315,520.42 C415.376,519.801 415.42,519.387 415.42,519.387 C415.484,518.749 416.049,518.286 416.686,518.35 C417.319,518.412 417.787,518.979 417.722,519.615 L417.716,519.656 C417.716,519.656 417.664,520.067 417.576,520.686 C417.541,520.992 417.473,521.369 417.465,521.718 C417.445,522.079 417.422,522.465 417.399,522.848 C417.411,523.635 417.388,524.435 417.463,525.028 C417.511,525.623 417.545,526.02 417.545,526.02 L417.551,526.094 C417.599,526.664 417.171,527.167 416.6,527.216 M416.897,517.433 C416.283,517.206 415.96,516.536 416.157,515.919 C416.157,515.919 416.292,515.504 416.495,514.879 C416.68,514.246 417.025,513.449 417.356,512.634 C417.734,511.829 418.114,510.999 418.419,510.484 C418.719,509.935 418.919,509.57 418.919,509.57 C419.271,508.925 420.079,508.687 420.724,509.037 C421.366,509.391 421.603,510.199 421.251,510.842 L421.229,510.881 C421.229,510.881 421.018,511.24 420.698,511.778 C420.349,512.327 420.024,513.007 419.664,513.699 C419.351,514.417 418.999,515.138 418.819,515.699 C418.613,516.258 418.479,516.632 418.479,516.632 L418.451,516.706 C418.221,517.336 417.525,517.66 416.897,517.433 M427.465,501.491 C428.023,502.062 428.011,502.976 427.438,503.531 L427.417,503.549 C427.417,503.549 426.176,504.718 425.122,505.857 C424.033,507.036 423.042,508.3 423.042,508.3 L423.035,508.313 C422.569,508.905 421.709,509.012 421.112,508.543 C420.527,508.085 420.418,507.243 420.861,506.647 C420.861,506.647 421.895,505.264 423.037,503.969 C424.219,502.637 425.387,501.501 425.387,501.501 L425.424,501.464 C425.995,500.908 426.909,500.918 427.465,501.491 M435.462,495.353 C435.97,496.044 435.825,497.018 435.134,497.528 L435.105,497.549 C435.105,497.549 433.74,498.505 432.377,499.462 C431.107,500.449 429.837,501.434 429.837,501.434 L429.771,501.486 C429.125,501.988 428.194,501.871 427.694,501.226 C427.201,500.591 427.309,499.677 427.929,499.17 C427.929,499.17 429.268,498.084 430.605,496.997 C431.947,496.012 433.29,495.026 433.29,495.026 C433.981,494.515 434.953,494.662 435.462,495.353 M488.133,553.159 C488.044,553.437 487.751,553.589 487.474,553.511 C487.474,553.511 487.135,553.416 486.628,553.276 C486.094,553.15 485.492,552.898 484.881,552.654 C483.653,552.163 482.427,551.676 482.427,551.676 C482.083,551.541 481.915,551.155 482.048,550.811 C482.182,550.468 482.571,550.299 482.914,550.433 L482.945,550.446 C482.945,550.446 484.146,550.991 485.352,551.534 C485.955,551.81 486.558,552.092 486.991,552.207 C487.431,552.353 487.726,552.451 487.726,552.451 L487.792,552.473 C488.077,552.57 488.231,552.876 488.133,553.159 M480.257,548.83 C480.586,549.076 480.65,549.54 480.401,549.868 C480.161,550.186 479.715,550.252 479.39,550.031 C479.39,550.031 479.033,549.787 478.496,549.418 C478.23,549.233 477.918,549.018 477.582,548.787 C477.256,548.551 476.874,548.318 476.548,548.051 C475.289,546.961 474.026,545.869 474.026,545.869 C473.653,545.546 473.609,544.979 473.935,544.604 C474.261,544.229 474.827,544.188 475.201,544.513 L475.232,544.541 C475.232,544.541 476.443,545.688 477.651,546.833 C477.956,547.111 478.285,547.324 478.581,547.556 C478.881,547.782 479.159,547.994 479.398,548.176 C479.877,548.539 480.195,548.782 480.195,548.782 L480.257,548.83 z M473.27,542.191 C473.564,542.64 473.44,543.238 472.996,543.535 C472.556,543.824 471.969,543.71 471.667,543.288 C471.667,543.288 471.417,542.93 471.034,542.394 C470.66,541.859 470.131,541.142 469.654,540.419 C468.856,538.958 468.052,537.498 468.052,537.498 C467.763,536.973 467.956,536.316 468.478,536.03 C469.003,535.741 469.659,535.933 469.948,536.456 L469.963,536.488 C469.963,536.488 470.717,537.974 471.47,539.458 C471.673,539.811 471.904,540.119 472.105,540.433 C472.311,540.74 472.501,541.028 472.665,541.273 C472.989,541.767 473.207,542.097 473.207,542.097 L473.27,542.191 z M468.086,535.02 C467.492,535.17 466.889,534.824 466.718,534.242 C466.718,534.242 466.595,533.821 466.413,533.191 C466.233,532.561 465.974,531.712 465.756,530.875 C465.445,529.238 465.134,527.601 465.134,527.601 C465.004,526.925 465.448,526.274 466.121,526.145 C466.796,526.016 467.451,526.458 467.579,527.133 L467.586,527.176 L468.1,530.468 C468.281,531.244 468.491,531.997 468.631,532.574 C468.781,533.149 468.877,533.532 468.877,533.532 L468.906,533.642 C469.06,534.25 468.693,534.866 468.086,535.02 M464.789,524.119 C464.789,524.119 464.737,522.379 464.728,520.649 C464.818,518.986 464.903,517.322 464.903,517.322 C464.943,516.559 465.594,515.972 466.356,516.011 C467.12,516.05 467.704,516.699 467.667,517.463 L467.665,517.494 C467.665,517.494 467.542,519.155 467.418,520.818 C467.401,522.417 467.384,524.009 467.384,524.009 L467.38,524.095 C467.375,524.811 466.789,525.384 466.071,525.376 C465.374,525.368 464.812,524.81 464.789,524.119 M468.324,506.092 C469.131,506.244 469.659,507.026 469.509,507.831 L469.5,507.867 L468.089,514.382 C467.926,515.149 467.172,515.637 466.407,515.474 C465.651,515.313 465.166,514.572 465.311,513.816 L466.584,507.276 C466.735,506.468 467.516,505.937 468.324,506.092 M468.436,505.783 C467.649,505.513 467.229,504.66 467.483,503.875 L469.54,497.534 C469.808,496.697 470.705,496.236 471.543,496.505 C472.385,496.776 472.844,497.674 472.573,498.512 L472.562,498.548 L470.374,504.84 C470.097,505.636 469.232,506.06 468.436,505.783 M147.132,537.504 C147.477,537.736 147.565,538.199 147.335,538.544 L147.314,538.574 C147.314,538.574 147.064,538.907 146.69,539.407 C146.332,539.91 145.8,540.573 145.242,541.232 C144.148,542.54 142.943,543.727 142.943,543.727 C142.712,543.954 142.341,543.949 142.113,543.72 C141.892,543.494 141.89,543.138 142.101,542.907 C142.101,542.907 143.216,541.699 144.199,540.4 C144.688,539.761 145.168,539.104 145.511,538.57 C145.863,538.052 146.094,537.706 146.094,537.706 C146.326,537.364 146.791,537.273 147.132,537.504 M151.885,529.387 L151.875,529.423 C151.875,529.423 151.745,529.818 151.548,530.411 C151.374,530.993 151.021,531.817 150.697,532.623 C150,534.199 149.158,535.684 149.158,535.684 C148.932,536.082 148.423,536.222 148.026,535.996 C147.641,535.777 147.501,535.286 147.698,534.896 C147.698,534.896 148.432,533.443 149.011,531.936 C149.269,531.183 149.547,530.464 149.703,529.839 C149.877,529.24 149.994,528.839 149.994,528.839 C150.146,528.318 150.691,528.017 151.214,528.168 C151.736,528.319 152.036,528.866 151.885,529.387 M152.882,521.221 C152.893,521.642 152.905,522.088 152.917,522.535 C152.878,523.411 152.867,524.284 152.768,524.931 C152.69,525.578 152.639,526.01 152.639,526.01 C152.57,526.581 152.053,526.987 151.482,526.921 C150.925,526.855 150.522,526.358 150.569,525.803 L150.574,525.728 C150.574,525.728 150.607,525.332 150.657,524.738 C150.729,524.146 150.707,523.344 150.718,522.558 C150.697,522.173 150.673,521.787 150.653,521.426 C150.646,521.079 150.58,520.701 150.54,520.396 C150.457,519.776 150.401,519.365 150.401,519.365 C150.317,518.73 150.76,518.149 151.392,518.065 C152.028,517.977 152.609,518.42 152.696,519.057 L152.699,519.095 L152.801,520.13 C152.83,520.443 152.882,520.789 152.882,521.221 M147.355,508.771 C147.986,508.398 148.804,508.608 149.175,509.239 L149.198,509.278 C149.198,509.278 149.401,509.644 149.697,510.192 C150.006,510.709 150.382,511.537 150.762,512.343 C151.091,513.158 151.44,513.954 151.624,514.587 C151.824,515.212 151.962,515.627 151.962,515.627 C152.166,516.265 151.817,516.949 151.179,517.154 C150.558,517.358 149.892,517.028 149.669,516.418 L149.64,516.34 C149.64,516.34 149.505,515.968 149.302,515.41 C149.119,514.847 148.77,514.127 148.453,513.408 C148.094,512.717 147.767,512.035 147.42,511.487 C147.102,510.949 146.889,510.59 146.889,510.59 C146.514,509.96 146.725,509.145 147.355,508.771 M142.996,505.565 C141.943,504.425 140.699,503.257 140.699,503.257 C140.118,502.712 140.088,501.801 140.633,501.218 C141.178,500.639 142.092,500.609 142.673,501.154 L142.689,501.167 L142.732,501.211 C142.732,501.211 143.899,502.346 145.083,503.677 C146.225,504.973 147.257,506.356 147.257,506.356 C147.709,506.963 147.584,507.821 146.979,508.272 C146.383,508.718 145.542,508.604 145.083,508.021 L145.077,508.008 C145.077,508.008 144.086,506.745 142.996,505.565 M140.405,500.958 C139.896,501.586 138.985,501.689 138.35,501.197 L138.281,501.144 C138.281,501.144 137.01,500.158 135.741,499.17 C134.378,498.213 133.014,497.257 133.014,497.257 C132.311,496.764 132.142,495.793 132.634,495.091 C133.126,494.388 134.097,494.22 134.799,494.712 L134.829,494.734 C134.829,494.734 136.171,495.72 137.513,496.709 C138.85,497.792 140.188,498.879 140.188,498.879 C140.822,499.394 140.919,500.324 140.405,500.958 M84.249,551.356 C84.376,551.676 84.221,552.038 83.903,552.164 L83.874,552.176 C83.874,552.176 83.087,552.449 82.301,552.721 C81.55,553.011 80.646,553.22 80.646,553.22 C80.353,553.287 80.058,553.106 79.991,552.811 C79.927,552.533 80.088,552.257 80.355,552.171 L80.394,552.161 C80.394,552.161 80.577,552.102 80.852,552.015 C81.119,551.946 81.51,551.78 81.896,551.626 C82.668,551.319 83.441,551.009 83.441,551.009 C83.76,550.881 84.122,551.037 84.249,551.356 M92.477,545.956 C92.771,546.318 92.716,546.849 92.354,547.142 L92.322,547.169 C92.322,547.169 91.027,548.125 89.73,549.084 C89.404,549.324 89.021,549.52 88.69,549.724 C88.353,549.923 88.036,550.11 87.767,550.27 C87.228,550.587 86.868,550.797 86.868,550.797 C86.536,550.993 86.111,550.883 85.917,550.551 C85.729,550.231 85.827,549.821 86.134,549.618 L86.194,549.581 C86.194,549.581 86.518,549.369 87.006,549.05 C87.25,548.89 87.535,548.705 87.838,548.507 C88.141,548.299 88.473,548.119 88.786,547.866 L91.289,545.833 C91.651,545.539 92.182,545.595 92.477,545.956 M98.802,539.588 L98.782,539.614 L96.984,542.294 C96.466,542.95 95.893,543.593 95.484,544.074 C95.066,544.555 94.791,544.874 94.791,544.874 C94.461,545.259 93.883,545.301 93.5,544.971 C93.13,544.649 93.08,544.097 93.376,543.714 L93.441,543.632 C93.441,543.632 93.676,543.328 94.03,542.875 C94.381,542.419 94.863,541.834 95.33,541.22 C96.185,539.853 97.041,538.488 97.041,538.488 C97.345,538 97.985,537.853 98.474,538.157 C98.959,538.461 99.106,539.101 98.802,539.588 M102.44,530.284 L102.429,530.325 C102.429,530.325 101.997,531.876 101.565,533.43 C101.287,534.221 100.96,535.016 100.735,535.61 C100.504,536.2 100.35,536.597 100.35,536.597 C100.129,537.156 99.499,537.434 98.939,537.214 C98.392,537 98.117,536.393 98.308,535.842 L98.345,535.733 C98.345,535.733 98.474,535.374 98.662,534.832 C98.848,534.29 99.114,533.586 99.355,532.853 C99.735,531.286 100.116,529.722 100.116,529.722 C100.272,529.078 100.918,528.685 101.561,528.84 C102.203,528.997 102.596,529.645 102.44,530.284 M103.394,520.37 L103.394,520.412 C103.394,520.412 103.366,522.022 103.335,523.634 C103.198,525.307 103.028,526.986 103.028,526.986 C102.96,527.673 102.347,528.171 101.663,528.103 C100.994,528.034 100.501,527.449 100.544,526.784 L100.55,526.694 C100.55,526.694 100.648,525.163 100.732,523.62 C100.716,522.01 100.7,520.398 100.7,520.398 C100.691,519.655 101.287,519.045 102.033,519.035 C102.776,519.028 103.387,519.625 103.394,520.37 M100.651,509.364 C101.442,509.239 102.186,509.773 102.315,510.566 L102.317,510.601 L103.208,516.984 C103.313,517.741 102.786,518.44 102.031,518.544 C101.283,518.649 100.594,518.129 100.473,517.389 L99.451,511.028 C99.322,510.237 99.86,509.491 100.651,509.364 M101.601,507.256 C101.821,508.047 101.359,508.866 100.57,509.086 C99.79,509.302 98.982,508.851 98.749,508.081 L96.889,501.909 C96.64,501.087 97.106,500.223 97.925,499.976 C98.748,499.726 99.613,500.193 99.86,501.013 L99.871,501.049 L101.601,507.256 z M293.344,267.63 L290.182,264.974 C305.419,252.731 325.583,238.963 348.643,223.229 C387.9,196.441 432.396,166.081 466.675,133.26 C502.822,98.656 520.896,67.552 521.661,38.506 C522.979,36.27 524.109,34.073 524.958,31.957 C537.524,72.978 515.31,115.625 458.836,158.793 C431.279,179.862 396.587,201.722 359.859,224.867 C337.584,238.903 315.027,253.14 293.344,267.63 M345.099,330.969 C326.892,316.007 293.603,295.486 255.127,271.777 C168.851,218.62 55.865,148.992 25.451,88.491 C26.212,89.366 26.987,90.227 27.734,91.114 L28.706,92.22 L29.774,93.235 L31.917,95.255 C33.299,96.655 34.866,97.844 36.407,99.058 L38.719,100.887 L41.158,102.534 C42.793,103.628 44.398,104.765 46.133,105.694 C47.853,106.636 49.494,107.738 51.287,108.55 C53.056,109.399 54.788,110.333 56.593,111.115 L62.027,113.394 L67.574,115.393 L73.215,117.115 L78.932,118.562 L84.715,119.727 C86.662,119.993 88.601,120.349 90.561,120.548 C92.524,120.723 94.48,120.968 96.455,120.981 C98.324,121.103 100.2,120.998 102.075,120.922 C102.489,122.615 103.454,123.921 104.368,125.229 C105.365,126.625 106.458,127.931 107.581,129.212 C109.814,131.779 112.162,134.237 114.557,136.644 C119.338,141.464 124.275,146.119 129.267,150.709 C139.261,159.88 149.471,168.805 159.747,177.655 C180.317,195.325 201.195,212.629 222.17,229.812 C263.286,263.431 304.796,296.548 346.583,329.346 C346.063,329.859 345.591,330.423 345.099,330.969 M281.483,257.679 C297.018,243.245 312.509,228.763 327.917,214.19 C347.596,195.537 367.167,176.77 386.41,157.659 C396.019,148.093 405.557,138.452 414.864,128.582 C419.509,123.644 424.096,118.644 428.521,113.491 C430.73,110.918 432.894,108.297 434.94,105.576 C435.965,104.217 436.961,102.836 437.855,101.372 C438.672,100 439.543,98.631 439.833,96.907 C441.707,96.849 443.586,96.818 445.441,96.562 C447.411,96.407 449.343,96.022 451.289,95.705 C453.229,95.366 455.136,94.873 457.056,94.462 L462.744,92.886 L468.34,91.028 L473.843,88.903 L479.231,86.51 L484.487,83.841 C486.229,82.932 487.89,81.876 489.595,80.902 C491.324,79.959 492.88,78.744 494.528,77.681 C496.19,76.629 497.712,75.38 499.259,74.172 L501.576,72.35 L503.747,70.362 C505.199,69.036 506.674,67.739 507.953,66.241 L509.944,64.071 L510.935,62.985 L511.822,61.808 C512.976,60.223 514.255,58.724 515.306,57.066 L518.282,52.127 C504.825,114.634 415.137,175.84 347.705,221.853 C324.488,237.694 304.197,251.545 288.879,263.883 L281.483,257.679 z M519.812,41.449 C519.558,45.011 519.047,48.57 518.282,52.124 L515.266,57.04 C514.207,58.688 512.914,60.176 511.75,61.749 L510.858,62.916 L509.859,63.995 L507.851,66.144 C506.561,67.627 505.079,68.911 503.624,70.221 L501.441,72.191 L499.116,73.988 C497.561,75.18 496.036,76.412 494.371,77.45 C492.717,78.498 491.155,79.696 489.427,80.622 C487.72,81.579 486.055,82.619 484.313,83.512 L479.052,86.127 L473.667,88.471 L468.168,90.541 L462.583,92.348 L456.915,93.873 C454.999,94.265 453.097,94.74 451.171,95.062 C449.241,95.361 447.317,95.727 445.37,95.866 C443.429,96.116 441.486,96.123 439.541,96.17 L439.201,96.178 L439.161,96.537 C438.987,98.042 438.059,99.561 437.188,100.954 C436.304,102.378 435.303,103.74 434.277,105.075 C432.231,107.756 430.056,110.352 427.833,112.897 C423.385,117.998 418.764,122.95 414.087,127.844 C404.717,137.63 395.109,147.185 385.43,156.666 C366.05,175.611 346.339,194.216 326.521,212.703 C310.925,227.224 295.243,241.654 279.518,256.032 L275.884,252.985 C330.385,200.282 400.345,130.662 435.516,87.673 C453.457,89.565 470.66,82.247 482.007,75.71 C497.618,66.718 511.707,53.652 519.812,41.449 M58.477,102.823 C70.27,108.526 87.956,114.579 105.711,111.398 C166.069,175.156 317.98,299.044 350.929,325.736 C350.306,326.183 349.681,326.619 349.086,327.109 C306.908,294.543 264.979,261.634 223.454,228.229 C202.352,211.222 181.348,194.089 160.651,176.594 C150.315,167.835 140.039,158.997 129.987,149.917 C124.966,145.373 120.003,140.767 115.2,136 C112.792,133.623 110.438,131.193 108.203,128.666 C107.085,127.406 105.989,126.121 105.004,124.767 C104.036,123.438 103.001,121.99 102.716,120.501 L102.65,120.147 L102.312,120.163 C100.37,120.257 98.428,120.391 96.475,120.281 C94.521,120.284 92.58,120.057 90.632,119.897 C88.687,119.716 86.755,119.378 84.818,119.128 L79.054,118.016 L73.352,116.617 L67.72,114.949 L62.177,113.002 L56.743,110.773 C54.938,110.007 53.206,109.092 51.433,108.259 C49.639,107.462 47.998,106.378 46.272,105.453 C44.535,104.539 42.927,103.419 41.293,102.342 L38.841,100.717 L36.523,98.911 C34.973,97.712 33.402,96.537 32.011,95.152 L29.855,93.15 L28.781,92.148 L27.805,91.049 C26.987,90.101 26.142,89.173 25.315,88.229 C22.72,83.028 20.742,77.894 19.44,72.844 C28.509,83.97 42.942,95.313 58.477,102.823 M191.083,242.768 C152.777,222.337 116.596,203.039 87.589,184.017 C70.327,172.699 55.971,161.213 44.493,149.594 L45.176,140.032 L37.65,140.708 L35.599,133.787 L29.871,132.633 C12.877,109.604 7.031,86.091 12.479,62.289 C13.656,64.699 15.208,67.193 17.039,69.714 C17.862,73.859 19.153,78.059 20.868,82.305 L20.524,81.824 L20.875,82.324 C46.22,145.005 164.603,217.956 254.253,273.197 C292.631,296.845 325.844,317.317 343.975,332.199 C343.633,332.617 343.281,333.095 342.924,333.609 C300.571,301.196 244.967,271.51 191.083,242.768 M208.357,320.399 C207.731,319.958 207.074,319.561 206.424,319.161 C213.362,312.656 225.932,300.824 241.868,285.639 L245.248,287.203 C232.979,298.299 220.686,309.372 208.357,320.399 M213.814,325.098 C212.925,324.161 211.993,323.281 211.019,322.449 C223.419,311.177 235.775,299.866 248.113,288.528 L257.243,292.751 C242.099,303.813 227.835,315.032 214.974,326.436 C214.577,325.949 214.19,325.493 213.814,325.098 M141.562,404.386 C141.461,405.129 141.775,405.947 142.255,407.137 C142.334,407.326 142.195,407.625 142.033,407.509 C139.815,406.068 132.525,400.974 128.687,398.213 C128.499,397.968 128.54,397.676 129.053,397.724 C130.172,397.83 130.987,397.875 131.68,397.499 L141.562,404.386 z M147.911,396.223 C147.003,399.316 145.014,401.893 142.541,403.008 L142.515,403.02 L132.626,396.128 C133.083,392.893 134.914,390.483 138.263,388.723 L147.911,396.223 z M165.361,377.021 C163.452,381.026 160.699,384.032 157.282,385.725 L147.813,377.51 C149.208,373.542 151.834,370.535 155.754,368.367 L165.361,377.021 z M175.593,367.606 C174.123,370.542 171.87,372.826 168.511,374.761 C167.865,375.132 167.189,375.475 166.5,375.805 L156.854,367.115 C158.533,362.193 161.158,360.229 165.411,357.919 L175.593,367.606 z M172.669,381.976 C176.693,379.657 179.727,376.833 181.911,373.36 C184.324,372.285 186.308,370.966 187.929,369.358 C188.434,369.277 188.953,369.189 189.499,369.095 C190.8,368.868 192.146,368.637 192.949,368.628 L193.094,368.627 C196.086,368.63 198.423,370.126 199.507,372.729 C201.94,378.562 198.032,387.653 189.309,396.455 C185.337,400.464 171.33,407.941 158.71,407.941 C157.069,407.941 155.452,407.817 154.022,407.575 C153.088,407.344 152.17,407.068 151.279,406.747 C152.808,405.117 154.087,403.163 155.015,401.033 C158.548,398.738 161.186,395.783 163.042,392.043 C166.646,389.776 169.71,386.461 171.987,382.36 C172.219,382.232 172.447,382.104 172.669,381.976 M172.866,349.532 C173.528,349.152 174.203,348.85 174.879,348.591 C175.008,349.919 175.028,351.385 174.917,353.001 C174.37,361.094 177.004,363.912 180.583,364.636 C179.542,365.318 178.292,365.913 176.775,366.431 L166.545,356.699 C167.656,353.819 169.945,351.214 172.866,349.532 M146.716,378.764 L156.18,386.975 C154.733,390.611 152.507,393.049 148.959,394.927 L139.297,387.416 C140.601,382.837 143.958,380.312 145.868,379.21 C146.148,379.049 146.43,378.904 146.716,378.764 M121.592,419.183 C119.877,417.865 117.145,414.425 116.642,410.359 C116.333,407.86 116.957,405.609 118.494,403.66 L118.595,403.545 C119.009,403.528 136.764,415.791 137.663,416.296 C137.739,416.337 137.826,416.388 137.919,416.439 C136.987,418.256 135.707,419.638 134.102,420.565 C130.435,422.675 125.409,422.12 121.592,419.183 M120.438,427.45 C119.288,428.113 117.811,427.716 117.147,426.566 C116.485,425.414 116.882,423.936 118.033,423.274 C119.187,422.611 120.66,423.008 121.325,424.159 C121.988,425.31 121.591,426.786 120.438,427.45 M137.832,412.101 C133.737,409.676 125.875,404.011 123.436,402.165 C123.399,402.137 123.282,402.048 123.303,401.705 C123.341,401.077 123.813,400.332 124.37,400.012 C124.807,399.758 125.198,399.801 125.676,400.148 C129.122,402.661 137.676,408.653 140.153,410.256 C152.882,419.432 171.434,419.002 188.57,409.132 L188.57,409.131 C190.326,408.122 192.069,407.006 193.747,405.82 C206.709,396.659 214.821,375.314 209.528,364.289 C206.744,358.489 199.311,358.85 192.75,359.17 C184.617,359.562 180.74,359.282 180.311,355.009 C179.766,349.549 177.768,339.746 170.526,335.423 C166.068,332.761 160.546,332.768 154.119,335.445 C152.513,336.117 151.848,337.92 151.264,339.636 C150.776,341.06 150.274,342.527 149.291,343.269 C148.198,344.095 146.452,344.321 144.888,343.882 C143.89,343.602 142.521,342.931 141.647,341.333 C138.728,335.991 147.127,329.697 148.84,328.489 C150.589,327.256 152.412,326.094 154.254,325.03 C175.499,312.793 198.462,313.741 211.398,327.391 C216.417,332.685 224.013,347.526 223.05,364.814 C222.17,380.599 214.513,394.687 200.296,406.684 C199.685,407.199 197.39,409.056 193.537,411.272 C182.907,417.397 161.535,425.644 137.832,412.101 M442.765,419.368 C439.169,422.574 434.194,423.491 430.385,421.649 C428.716,420.84 427.34,419.553 426.281,417.811 L426.524,417.649 C427.386,417.081 444.209,403.565 444.621,403.552 L444.732,403.661 C446.406,405.491 447.188,407.693 447.063,410.207 C446.857,414.304 444.375,417.928 442.765,419.368 M446.608,423.189 C447.805,423.767 448.307,425.212 447.728,426.409 C447.149,427.603 445.707,428.108 444.51,427.528 C443.312,426.949 442.81,425.508 443.389,424.311 C443.966,423.113 445.412,422.61 446.608,423.189 M383.913,370.741 C382.363,370.329 381.075,369.829 379.983,369.222 C383.502,368.241 385.93,365.243 384.794,357.207 C384.57,355.603 384.482,354.147 384.515,352.81 C385.209,353.02 385.904,353.268 386.592,353.604 C389.625,355.07 392.097,357.502 393.414,360.291 L383.913,370.741 z M412.256,409.111 C411.417,409.485 410.554,409.817 409.682,410.107 C407.462,410.648 405.016,410.925 402.417,410.925 C390.338,410.925 377.418,404.941 373.581,401.589 C364.215,393.413 359.666,384.609 361.709,378.615 C362.629,375.923 364.896,374.275 367.91,374.096 C368.033,374.089 368.16,374.086 368.296,374.086 C369.109,374.086 370.212,374.197 371.428,374.318 C371.941,374.366 372.47,374.418 373.001,374.465 C374.732,375.948 376.807,377.121 379.292,378.019 C381.723,381.328 384.955,383.929 389.142,385.951 C389.367,386.059 389.602,386.169 389.838,386.278 C392.405,390.204 395.702,393.29 399.463,395.291 C401.585,398.888 404.428,401.646 408.116,403.675 C409.198,405.74 410.615,407.594 412.256,409.111 M420.727,404.758 L420.701,404.748 C418.153,403.812 415.984,401.385 414.854,398.366 L423.936,390.191 C427.403,391.704 429.4,393.974 430.093,397.169 L420.727,404.758 z M421.774,406.05 L431.139,398.47 C431.853,398.795 432.664,398.689 433.769,398.503 C434.277,398.418 434.34,398.706 434.174,398.964 C430.541,401.993 423.642,407.602 421.533,409.199 C421.381,409.326 421.22,409.04 421.282,408.845 C421.678,407.622 421.932,406.784 421.774,406.05 M415.664,381.252 C417.645,382.21 421.178,384.489 422.811,388.961 L413.715,397.15 C410.039,395.533 407.645,393.263 405.94,389.739 L414.788,380.866 C415.082,380.988 415.373,381.112 415.664,381.252 M413.598,379.696 L404.751,388.574 C401.218,387.13 398.255,384.336 396.06,380.477 L405.021,371.151 C409.089,373.032 411.921,375.837 413.598,379.696 M403.832,369.984 L394.836,379.349 C394.128,379.069 393.428,378.773 392.757,378.447 C389.27,376.762 386.853,374.649 385.175,371.827 L394.631,361.428 C399.042,363.424 401.801,365.194 403.832,369.984 M417.137,343.169 C416.38,344.826 415.064,345.592 414.089,345.946 C412.562,346.496 410.803,346.395 409.653,345.652 C408.618,344.982 408.009,343.554 407.424,342.175 C406.716,340.502 405.921,338.752 404.271,338.198 C397.667,335.991 392.158,336.38 387.905,339.361 C380.998,344.199 379.711,354.119 379.561,359.602 C379.444,363.893 375.594,364.455 367.456,364.651 C360.89,364.807 353.451,364.983 351.092,370.967 C346.605,382.349 356.241,403.051 369.831,411.248 C371.587,412.309 373.408,413.3 375.232,414.181 L375.234,414.181 C393.042,422.785 411.572,421.878 423.605,411.806 C425.961,410.026 434.058,403.435 437.316,400.677 C437.767,400.295 438.152,400.227 438.606,400.445 C439.186,400.727 439.712,401.434 439.795,402.058 C439.84,402.397 439.728,402.493 439.695,402.527 C437.397,404.545 429.964,410.764 426.052,413.478 C403.392,428.696 381.477,422.017 370.434,416.675 C366.429,414.743 364.009,413.056 363.363,412.586 C348.312,401.649 339.66,388.152 337.64,372.467 C335.431,355.295 341.939,339.944 346.56,334.303 C358.476,319.752 381.312,317.147 403.384,327.818 C405.299,328.745 407.202,329.773 409.032,330.876 C410.83,331.958 419.662,337.631 417.137,343.169 M531.135,24.273 L523.177,2.948 L518.382,25.199 C515.678,37.758 497.495,57.177 477.853,68.493 C469.018,73.583 455.513,79.648 441.365,79.648 C439.42,79.648 437.485,79.532 435.607,79.301 L431.958,78.855 L429.633,81.706 C394.699,124.587 323.724,195.149 269.465,247.608 L269.439,247.584 L269.426,247.638 C216.417,203.065 146.824,142.866 111.148,105.025 L108.627,102.348 L105.007,103.055 C102,103.651 98.821,103.951 95.561,103.951 C82.649,103.951 70.239,99.261 62.102,95.326 C41.69,85.461 22.153,67.401 18.549,55.072 L12.159,33.23 L5.761,55.07 C-8.148,102.515 17.846,148.244 83.021,190.98 C112.346,210.21 148.687,229.593 187.162,250.116 C203.008,258.568 220.817,268.067 238.177,277.649 C222.196,292.892 209.468,304.881 202.357,311.554 C196.713,309.302 190.529,308.162 183.94,308.162 C172.76,308.162 161.058,311.5 150.1,317.814 C148.032,319.006 145.996,320.306 144.042,321.683 C133.816,328.89 130.188,337.729 134.339,345.324 C136.103,348.553 139.046,350.887 142.628,351.897 C146.625,353.02 151.222,352.242 154.313,349.912 C157.196,347.734 158.325,344.714 159.062,342.569 C162.056,341.832 165.087,342.012 166.802,342.996 C166.922,343.09 167.039,343.189 167.156,343.29 C164.024,345.436 161.449,348.298 159.744,351.552 C155.473,354.067 152.119,356.986 149.828,362.195 C145.75,364.828 142.796,368.225 140.842,372.52 C136.924,375.011 133.885,378.558 132.139,382.686 C129.448,384.506 127.417,386.777 126.071,389.466 C125.289,389.599 124.358,389.867 123.432,390.4 C122.67,390.84 122.009,391.403 121.472,392.058 L121.32,392.25 C120.938,392.407 120.57,392.588 120.214,392.792 C119.126,393.419 118.14,394.283 117.328,395.305 C116.331,395.457 115.37,395.797 114.452,396.323 C113.506,396.871 112.669,397.601 111.96,398.496 C109.033,402.202 107.795,406.656 108.376,411.382 C108.681,413.84 109.514,416.389 110.771,418.767 C108.174,422.13 107.723,426.889 109.93,430.723 C111.844,434.038 115.414,436.098 119.247,436.098 C119.524,436.098 119.8,436.066 120.077,436.043 C120.063,436.191 120.037,436.338 120.064,436.491 C120.064,436.491 120.337,438.08 120.61,439.669 C120.657,439.875 120.623,440.031 120.633,440.208 C120.633,440.383 120.633,440.551 120.634,440.716 C120.641,441.046 120.643,441.354 120.646,441.615 C120.657,442.141 120.666,442.491 120.666,442.491 L120.674,442.771 L120.674,442.778 C120.688,443.341 120.986,443.812 121.409,444.121 C120.895,444.296 120.458,444.672 120.274,445.227 C120.274,445.227 119.767,446.756 119.261,448.284 C118.587,449.521 117.961,450.774 117.961,450.774 L117.847,451.003 C117.585,451.526 117.631,452.102 117.872,452.59 C117.299,452.529 116.708,452.707 116.303,453.179 L116.296,453.187 C116.296,453.187 115.251,454.41 114.203,455.632 C113.135,456.707 112.067,457.781 112.067,457.781 L111.993,457.856 L111.986,457.861 C111.524,458.33 111.398,458.983 111.552,459.576 C110.962,459.365 110.285,459.437 109.772,459.869 L109.754,459.884 L104.832,464.046 L104.831,464.048 C104.295,464.5 104.109,465.193 104.254,465.831 C103.619,465.573 102.863,465.681 102.332,466.183 L102.309,466.204 L97.625,470.633 C97.046,471.181 96.943,472.017 97.283,472.697 C96.573,472.465 95.772,472.682 95.315,473.32 C95.315,473.32 95.081,473.647 94.728,474.138 C94.551,474.386 94.347,474.649 94.122,475.029 C93.899,475.39 93.665,475.775 93.427,476.159 C93.027,476.953 92.597,477.719 92.379,478.363 C92.139,478.989 91.977,479.407 91.977,479.407 C91.683,480.171 91.995,481 92.659,481.437 C91.88,481.572 91.266,482.205 91.238,483.027 C91.238,483.027 91.223,483.431 91.201,484.032 C91.182,484.316 91.183,484.694 91.223,485.158 C91.259,485.594 91.27,486.085 91.34,486.531 C91.492,487.407 91.634,488.289 91.842,488.912 L92.142,489.968 C92.365,490.762 93.132,491.231 93.929,491.146 C93.359,491.592 93.111,492.357 93.399,493.057 L95.846,499.019 C96.172,499.814 97.08,500.211 97.885,499.901 C98.702,499.585 99.11,498.666 98.794,497.849 L96.472,491.836 L96.46,491.8 C96.183,491.122 95.503,490.749 94.812,490.8 C95.301,490.396 95.544,489.734 95.369,489.079 L95.328,488.928 C95.328,488.928 95.232,488.576 95.091,488.043 C94.915,487.516 94.818,486.8 94.695,486.091 C94.644,485.74 94.649,485.421 94.617,485.106 C94.607,484.951 94.595,484.8 94.584,484.657 C94.59,484.484 94.599,484.321 94.606,484.169 C94.632,483.564 94.649,483.163 94.649,483.163 L94.649,483.146 C94.671,482.532 94.347,482.009 93.875,481.69 C94.44,481.591 94.949,481.239 95.181,480.666 L95.246,480.498 C95.246,480.498 95.381,480.166 95.581,479.668 C95.747,479.16 96.126,478.525 96.449,477.881 C96.637,477.583 96.826,477.283 97.003,477.003 C97.156,476.729 97.386,476.435 97.563,476.191 C97.919,475.704 98.159,475.38 98.159,475.38 L98.171,475.364 C98.561,474.821 98.571,474.138 98.297,473.576 C98.887,473.768 99.556,473.672 100.044,473.219 L100.067,473.197 L104.795,468.815 L104.808,468.803 C105.291,468.346 105.436,467.692 105.299,467.091 C105.91,467.351 106.638,467.282 107.181,466.823 L107.198,466.811 L112.118,462.643 C112.658,462.186 112.847,461.48 112.691,460.836 C113.329,461.053 114.063,460.92 114.566,460.407 C114.566,460.407 115.766,459.194 116.963,457.98 C118.007,456.754 119.052,455.531 119.052,455.531 C119.526,454.974 119.596,454.223 119.312,453.602 C120.009,453.658 120.706,453.302 121.052,452.643 C121.052,452.643 121.899,451.031 122.692,449.396 C123.182,447.863 123.67,446.326 123.67,446.326 C123.907,445.576 123.61,444.804 123.009,444.361 C123.704,444.114 124.205,443.459 124.185,442.68 C124.185,442.68 124.171,442.224 124.152,441.542 C124.138,441.202 124.124,440.804 124.109,440.375 C124.1,440.162 124.091,439.944 124.083,439.721 C124.064,439.506 124.079,439.251 124.031,439.063 C123.736,437.479 123.439,435.893 123.439,435.893 C123.399,435.685 123.316,435.5 123.213,435.325 C123.556,435.192 123.887,435.028 124.217,434.853 C124.227,435.193 124.304,435.532 124.518,435.826 C124.518,435.826 124.582,435.912 124.687,436.06 C124.778,436.193 124.983,436.442 125.098,436.642 C125.347,437.026 125.704,437.674 125.97,438.324 C126.509,439.645 126.688,441.113 126.688,441.113 L126.692,441.133 C126.784,441.821 127.263,442.345 127.875,442.562 C127.297,442.83 126.866,443.373 126.817,444.051 C126.817,444.051 126.787,444.466 126.74,445.09 C126.711,445.752 126.58,446.427 126.48,447.199 C126.219,448.754 125.829,450.316 125.829,450.316 L125.826,450.319 C125.649,451.032 125.927,451.742 126.467,452.169 C125.8,452.252 125.204,452.694 124.975,453.374 L124.966,453.392 L122.836,459.706 L122.836,459.709 C122.605,460.394 122.817,461.113 123.303,461.584 C122.596,461.639 121.957,462.113 121.719,462.83 L121.714,462.85 L119.637,469.18 C119.377,469.96 119.715,470.774 120.376,471.206 C119.593,471.245 118.901,471.77 118.73,472.574 C118.73,472.574 118.645,472.982 118.512,473.593 C118.372,474.174 118.233,475.082 118.087,475.961 C117.987,476.845 117.858,477.715 117.85,478.395 C117.822,479.071 117.801,479.519 117.801,479.519 C117.766,480.385 118.387,481.108 119.219,481.264 C118.428,481.568 117.946,482.386 118.144,483.233 C118.144,483.233 118.167,483.336 118.21,483.514 C118.261,483.705 118.287,483.905 118.404,484.286 C118.607,485.035 118.938,485.899 119.366,486.767 C119.806,487.62 120.352,488.415 120.803,488.974 C121.257,489.527 121.587,489.87 121.587,489.87 L121.594,489.877 L121.598,489.881 C122.225,490.533 123.243,490.558 123.914,489.966 C123.459,490.765 123.737,491.781 124.535,492.236 L130.33,495.547 C131.075,495.973 132.035,495.728 132.48,494.983 C132.934,494.232 132.691,493.253 131.938,492.799 L126.233,489.37 L126.212,489.36 L126.189,489.344 C125.466,488.93 124.586,489.142 124.083,489.772 C124.621,489.122 124.621,488.168 124.021,487.547 C124.021,487.547 123.019,486.507 122.401,485.232 C122.096,484.602 121.84,483.902 121.721,483.439 C121.648,483.226 121.595,482.907 121.554,482.747 C121.514,482.571 121.494,482.468 121.494,482.468 L121.488,482.451 C121.333,481.789 120.81,481.322 120.19,481.18 C120.786,480.933 121.226,480.372 121.263,479.686 L121.271,479.555 C121.271,479.555 121.291,479.171 121.322,478.598 C121.332,478.027 121.459,477.246 121.548,476.477 C121.688,475.712 121.799,474.973 121.958,474.342 C122.095,473.733 122.186,473.326 122.186,473.326 L122.19,473.306 C122.339,472.601 122.042,471.908 121.491,471.511 C122.174,471.45 122.788,471.002 123.024,470.312 L123.03,470.291 L125.172,463.982 L125.178,463.963 C125.403,463.281 125.188,462.568 124.704,462.1 C125.406,462.042 126.043,461.576 126.283,460.866 L126.289,460.847 L128.411,454.531 C128.663,453.782 128.385,453 127.798,452.539 C128.521,452.45 129.154,451.942 129.34,451.189 C129.341,451.189 129.76,449.516 130.046,447.786 C130.167,446.907 130.319,445.937 130.341,445.35 C130.387,444.728 130.418,444.313 130.418,444.313 C130.478,443.479 129.946,442.765 129.19,442.504 C129.896,442.19 130.355,441.462 130.248,440.656 L130.241,440.605 C130.24,440.605 129.992,438.744 129.238,436.974 C128.856,436.092 128.407,435.277 127.959,434.624 C127.744,434.293 127.605,434.146 127.491,433.98 C127.381,433.836 127.318,433.753 127.318,433.753 C127.111,433.481 126.834,433.316 126.536,433.203 C127.491,432.317 128.292,431.286 128.865,430.125 C132.248,430.17 135.513,429.364 138.257,427.78 C140.039,426.755 141.647,425.386 143.006,423.748 C149.974,426.413 157.18,427.764 164.464,427.764 C178.623,427.764 190.349,422.721 197.694,418.491 C202.103,415.952 204.908,413.69 205.666,413.049 C221.707,399.514 230.354,383.442 231.367,365.276 C232.266,349.15 226.585,336.14 223.359,330.157 C236.193,318.978 251.022,307.388 268.554,294.829 C295.253,310.393 316.986,324.521 334.833,337.925 C332.046,344.124 327.32,357.508 329.383,373.533 C331.706,391.574 341.491,406.983 358.479,419.335 C359.501,420.072 362.361,422.021 366.811,424.174 C373.417,427.368 383.897,431.178 396.281,431.178 C405.087,431.178 413.638,429.258 421.737,425.469 C423.208,427.002 424.911,428.251 426.76,429.148 C429.619,430.53 432.969,431.108 436.304,430.812 C437.252,432.429 438.641,433.757 440.318,434.695 C440.265,434.766 440.222,434.822 440.16,434.914 C439.712,435.568 439.264,436.383 438.88,437.266 C438.127,439.037 437.877,440.897 437.877,440.897 L437.869,440.947 L437.869,440.966 C437.769,441.766 438.227,442.482 438.923,442.796 C438.169,443.058 437.642,443.772 437.701,444.604 C437.701,444.604 437.73,445.018 437.779,445.642 C437.798,446.229 437.952,447.199 438.069,448.075 C438.358,449.806 438.777,451.481 438.777,451.481 L438.777,451.487 C438.966,452.235 439.597,452.743 440.32,452.832 C439.736,453.291 439.458,454.074 439.709,454.822 L441.827,461.137 L441.836,461.157 L441.84,461.159 C442.076,461.869 442.71,462.332 443.413,462.388 C442.924,462.863 442.713,463.584 442.949,464.273 L445.089,470.582 L445.097,470.602 C445.328,471.289 445.943,471.738 446.62,471.802 C446.069,472.203 445.774,472.907 445.931,473.618 C445.931,473.618 446.023,474.024 446.16,474.634 C446.317,475.264 446.431,476.003 446.569,476.769 C446.659,477.534 446.789,478.319 446.796,478.888 C446.826,479.462 446.848,479.848 446.848,479.848 L446.857,479.978 C446.893,480.661 447.332,481.223 447.924,481.473 C447.299,481.614 446.774,482.091 446.625,482.76 C446.625,482.76 446.603,482.863 446.562,483.039 C446.523,483.198 446.471,483.518 446.397,483.731 C446.281,484.193 446.019,484.894 445.717,485.524 C445.097,486.798 444.098,487.838 444.098,487.838 L444.096,487.842 C443.501,488.461 443.501,489.403 444.027,490.05 C443.512,489.419 442.616,489.222 441.897,489.654 L441.884,489.661 L436.181,493.091 C435.443,493.535 435.188,494.493 435.62,495.245 C436.055,496.008 437.027,496.272 437.79,495.837 L443.582,492.528 L443.615,492.51 C444.393,492.04 444.647,491.035 444.195,490.251 C444.866,490.852 445.894,490.826 446.526,490.168 L446.532,490.159 C446.532,490.159 446.863,489.82 447.317,489.265 C447.768,488.706 448.311,487.91 448.753,487.058 C449.181,486.19 449.512,485.325 449.715,484.578 C449.833,484.197 449.857,483.998 449.91,483.806 C449.95,483.626 449.972,483.525 449.972,483.525 L449.978,483.506 C450.166,482.662 449.68,481.852 448.895,481.554 C449.726,481.399 450.352,480.68 450.315,479.81 C450.315,479.81 450.298,479.36 450.269,478.687 C450.261,478.004 450.132,477.138 450.033,476.251 C449.886,475.372 449.747,474.466 449.607,473.885 C449.475,473.273 449.386,472.866 449.386,472.866 L449.384,472.844 C449.204,472.052 448.519,471.534 447.746,471.496 C448.405,471.065 448.741,470.255 448.485,469.468 L446.406,463.14 L446.397,463.12 L446.392,463.104 C446.151,462.394 445.517,461.932 444.814,461.876 C445.301,461.403 445.515,460.685 445.281,459.998 L443.149,453.684 L443.143,453.666 C442.917,452.987 442.319,452.546 441.651,452.461 C442.191,452.033 442.471,451.32 442.291,450.605 C442.291,450.605 441.899,449.047 441.636,447.491 C441.54,446.718 441.407,446.043 441.379,445.381 C441.332,444.758 441.303,444.341 441.303,444.341 C441.25,443.665 440.823,443.123 440.246,442.856 C440.863,442.636 441.342,442.101 441.428,441.405 C441.428,441.405 441.607,439.935 442.148,438.616 C442.417,437.965 442.77,437.316 443.021,436.933 C443.135,436.734 443.339,436.486 443.429,436.351 C443.539,436.201 443.597,436.117 443.597,436.117 L443.694,435.92 C444.033,435.978 444.37,436.022 444.716,436.05 L444.674,436.173 L444.671,436.187 C444.427,436.996 444.826,437.818 445.557,438.188 C444.744,438.289 444.082,438.923 444.03,439.77 C444.03,439.77 444.003,440.187 443.964,440.811 C443.95,441.133 443.905,441.458 443.926,441.926 C443.936,442.368 443.947,442.842 443.958,443.318 C444.055,444.231 444.121,445.14 444.287,445.808 C444.423,446.479 444.516,446.927 444.516,446.927 L444.52,446.949 C444.693,447.742 445.378,448.268 446.148,448.32 C445.56,448.869 445.365,449.741 445.772,450.481 C445.772,450.481 446.569,451.944 447.365,453.408 C448.439,454.895 449.51,456.383 449.51,456.383 L449.522,456.395 C449.972,457.01 450.741,457.249 451.438,457.064 C451.177,457.736 451.326,458.524 451.884,459.04 L456.752,463.585 L456.773,463.604 L456.773,463.606 C457.334,464.127 458.134,464.221 458.785,463.912 C458.6,464.576 458.792,465.321 459.357,465.796 L464.454,470.087 L464.473,470.104 C465.034,470.574 465.797,470.641 466.417,470.342 C466.173,470.964 466.284,471.696 466.775,472.21 C466.775,472.21 467.926,473.413 469.08,474.618 C469.56,475.222 470.009,475.823 470.363,476.271 C470.713,476.722 470.948,477.018 470.948,477.018 L471.085,477.193 C471.485,477.704 472.123,477.91 472.727,477.815 C472.316,478.282 472.154,478.945 472.389,479.565 C472.389,479.565 472.539,479.953 472.762,480.536 C472.879,480.832 473.01,481.178 473.064,481.47 C473.135,481.783 473.233,482.108 473.309,482.448 C473.358,482.807 473.407,483.168 473.453,483.507 C473.52,483.845 473.497,484.168 473.504,484.44 C473.515,484.99 473.52,485.355 473.52,485.355 L473.524,485.565 C473.535,486.231 473.935,486.791 474.503,487.059 C473.88,487.128 473.322,487.53 473.101,488.159 L473.099,488.174 C473.099,488.174 472.564,489.698 472.03,491.219 C471.395,492.76 470.762,494.302 470.762,494.302 C470.428,495.119 470.805,496.058 471.62,496.412 C472.445,496.773 473.403,496.395 473.763,495.571 C473.763,495.571 474.429,494.043 475.094,492.517 L475.195,492.274 L475.247,492.128 L475.352,491.836 C475.423,491.643 475.492,491.453 475.557,491.269 C475.688,490.903 475.812,490.561 475.917,490.265 C476.128,489.677 476.271,489.285 476.271,489.285 L476.277,489.275 C476.569,488.441 476.154,487.554 475.366,487.2 C476.227,487.122 476.91,486.417 476.91,485.535 C476.91,485.535 476.91,485.07 476.91,484.369 C476.902,484.021 476.925,483.61 476.853,483.176 C476.796,482.741 476.737,482.279 476.679,481.813 C476.579,481.341 476.452,480.863 476.34,480.418 C476.232,479.947 476.102,479.612 475.992,479.324 C475.777,478.741 475.631,478.35 475.631,478.35 L475.623,478.33 C475.323,477.542 474.509,477.135 473.707,477.278 C474.263,476.675 474.36,475.758 473.849,475.076 C473.849,475.076 472.762,473.616 471.648,472.202 C470.509,470.987 469.37,469.772 469.37,469.772 L469.359,469.763 L469.349,469.75 C468.789,469.165 467.941,469.072 467.258,469.424 C467.557,468.722 467.407,467.887 466.796,467.363 L461.73,463.037 L461.709,463.023 L461.701,463.013 C461.133,462.536 460.365,462.469 459.737,462.773 C459.92,462.136 459.766,461.427 459.247,460.946 L454.373,456.408 L454.356,456.392 C453.871,455.939 453.21,455.834 452.614,456.01 C452.851,455.443 452.822,454.783 452.431,454.253 L452.317,454.096 C452.317,454.096 451.43,452.89 450.541,451.684 C449.741,450.224 448.942,448.764 448.942,448.764 L448.939,448.754 C448.63,448.191 448.062,447.889 447.464,447.851 C447.908,447.434 448.15,446.823 448.011,446.186 L447.98,446.037 C447.98,446.037 447.9,445.669 447.78,445.118 C447.627,444.574 447.574,443.812 447.477,443.075 C447.462,442.715 447.449,442.361 447.434,442.022 C447.4,441.707 447.443,441.307 447.451,441.003 C447.482,440.382 447.502,439.965 447.502,439.965 C447.534,439.278 447.157,438.67 446.585,438.361 C447.208,438.258 447.75,437.83 447.948,437.187 L448.003,436.999 C448.003,436.999 448.116,436.635 448.282,436.091 C448.317,435.975 448.362,435.826 448.4,435.698 C451.336,434.882 453.871,432.84 455.226,430.032 C457.149,426.051 456.355,421.338 453.524,418.174 C454.607,415.711 455.254,413.108 455.381,410.631 C455.621,405.875 454.064,401.521 450.893,398.058 C450.122,397.21 449.227,396.535 448.223,396.047 C447.285,395.593 446.303,395.324 445.292,395.245 C444.406,394.284 443.365,393.492 442.236,392.951 C441.865,392.769 441.48,392.614 441.084,392.485 L440.928,392.313 C440.34,391.692 439.643,391.185 438.827,390.782 C438.033,390.4 437.135,390.158 436.157,390.063 C434.62,387.477 432.427,385.354 429.609,383.726 C427.569,379.74 424.279,376.417 420.193,374.216 C417.934,370.074 414.742,366.9 410.483,364.566 C407.823,359.534 404.265,356.868 399.825,354.666 C397.886,351.547 395.109,348.872 391.827,346.959 L392.079,346.719 C393.628,345.652 395.69,345.426 397.162,345.426 C398.066,345.426 399.002,345.508 399.854,345.651 C400.685,347.598 402.071,350.664 405.131,352.648 C408.364,354.733 413.032,355.181 416.92,353.777 C420.421,352.511 423.188,349.972 424.713,346.621 C428.306,338.748 424.051,330.194 413.327,323.741 C411.267,322.504 409.145,321.352 407.007,320.319 C397.089,315.524 386.611,312.991 376.708,312.991 C368.689,312.991 361.042,314.668 354.439,317.859 C343.818,309.244 324.205,293.261 300.005,273.178 C321.168,259.09 343.076,245.285 364.306,231.908 C401.187,208.666 436.028,186.714 463.896,165.408 C525.816,118.076 548.438,70.589 531.135,24.273" fill="#FFFFFF"/>
  </g>
</svg>
